<?xml version="1.0" standalone="no"?>
<!DOCTYPE svg PUBLIC "-//W3C//DTD SVG 20010904//EN"
 "http://www.w3.org/TR/2001/REC-SVG-20010904/DTD/svg10.dtd">
<svg version="1.0" xmlns="http://www.w3.org/2000/svg"
 width="302.000000pt" height="137.000000pt" viewBox="0 0 302.000000 137.000000"
 preserveAspectRatio="xMidYMid meet">
<metadata>
Created by potrace 1.15, written by Peter Selinger 2001-2017
</metadata>
<g transform="translate(0.000000,137.000000) scale(0.100000,-0.100000)"
fill="#000000" stroke="none">
<path d="M610 1165 l0 -205 -25 0 -25 0 0 195 0 195 -280 0 -280 0 0 -670 0
-670 280 0 280 0 0 25 0 24 25 -24 c33 -34 55 -32 23 3 -41 43 -48 66 -48 148
0 60 4 84 21 110 26 42 63 69 115 83 84 23 194 -38 194 -106 l0 -33 -75 0
c-43 0 -75 -4 -75 -10 0 -6 32 -10 75 -10 l75 0 0 -80 c0 -73 -3 -83 -25 -105
-13 -14 -18 -25 -12 -25 7 0 18 5 25 12 9 9 12 9 12 0 0 -8 17 -12 45 -12 l45
0 0 670 0 670 -45 0 -45 0 0 -52 -1 -53 -14 40 c-24 68 -62 85 -191 85 l-74 0
0 -205z m195 171 c36 -15 65 -59 65 -98 0 -33 -36 -87 -66 -98 -14 -6 -50 -10
-80 -10 -30 0 -54 -3 -54 -7 0 -5 37 -43 82 -85 l83 -77 -107 -1 -108 0 0 195
0 195 75 0 c43 0 90 -6 110 -14z m85 -241 c0 -101 -3 -135 -12 -135 -7 0 -49
34 -93 75 l-80 74 38 1 c74 0 137 46 137 100 0 11 2 20 5 20 3 0 5 -61 5 -135z
m-26 -310 c24 -22 26 -30 26 -105 l0 -80 -75 0 c-43 0 -75 -4 -75 -10 0 -6 32
-10 75 -10 l75 0 0 -33 c0 -68 -110 -129 -194 -106 -52 14 -89 41 -115 83 -26
42 -30 170 -6 216 30 58 58 70 165 70 89 0 99 -2 124 -25z m-221 -344 c72 -35
175 -23 229 26 17 15 18 13 18 -57 0 -70 -1 -72 -18 -57 -75 68 -231 58 -292
-20 l-20 -26 0 103 0 103 20 -26 c11 -14 39 -35 63 -46z"/>
<path d="M1686 1132 c-6 -11 -96 -242 -96 -249 0 -2 5 -3 12 -1 6 2 17 20 23
39 11 33 14 34 68 37 l57 3 16 -41 c9 -22 21 -40 26 -40 11 0 13 -6 -45 147
-40 107 -49 123 -61 105z"/>
<path d="M2446 1132 c-6 -11 -96 -242 -96 -249 0 -2 5 -3 12 -1 6 2 17 20 23
39 11 33 14 34 68 37 l57 3 16 -41 c9 -22 21 -40 26 -40 11 0 13 -6 -45 147
-40 107 -49 123 -61 105z"/>
<path d="M1832 1002 l2 -127 3 123 4 122 42 0 c54 0 87 -22 87 -59 0 -37 -28
-61 -73 -61 -20 0 -37 -4 -37 -9 0 -15 120 -114 128 -106 4 4 -15 27 -41 51
-38 34 -44 44 -29 44 10 0 31 9 46 21 28 22 35 64 16 100 -10 17 -7 19 30 19
l40 0 0 -120 c0 -73 4 -120 10 -120 6 0 10 46 10 119 l0 120 43 4 c23 2 -31 4
-120 5 l-163 1 2 -127z"/>
<path d="M2810 1005 l0 -125 43 0 c106 0 157 42 157 128 0 88 -37 121 -132
122 l-68 0 0 -125z m118 104 c57 -20 83 -100 53 -158 -16 -29 -68 -51 -121
-51 l-40 0 0 110 0 110 39 0 c21 0 52 -5 69 -11z"/>
<path d="M2650 760 c-45 -45 -13 -130 50 -130 41 0 70 31 70 75 0 44 -29 75
-70 75 -17 0 -39 -9 -50 -20z"/>
<path d="M2650 170 c-45 -45 -13 -130 50 -130 41 0 70 31 70 75 0 44 -29 75
-70 75 -17 0 -39 -9 -50 -20z"/>
</g>
</svg>
